<svg xmlns="http://www.w3.org/2000/svg" viewBox="0 0 120 120" fill="none">
  <path d="M30 52 L18 18 L42 38 Z" stroke="#16a34a" stroke-width="2.5" stroke-linejoin="miter" fill="none"/>
  <path d="M90 52 L102 18 L78 38 Z" stroke="#16a34a" stroke-width="2.5" stroke-linejoin="miter" fill="none"/>
  <path d="M35 42 L28 58 L32 80 L60 92 L88 80 L92 58 L85 42 Z" stroke="#16a34a" stroke-width="2.5" stroke-linejoin="miter" fill="none"/>
  <path d="M44 60 L50 54 L56 60 L50 66 Z" stroke="#16a34a" stroke-width="2" fill="none"/>
  <line x1="50" y1="56" x2="50" y2="64" stroke="#16a34a" stroke-width="1.5"/>
  <path d="M64 60 L70 54 L76 60 L70 66 Z" stroke="#16a34a" stroke-width="2" fill="none"/>
  <line x1="70" y1="56" x2="70" y2="64" stroke="#16a34a" stroke-width="1.5"/>
  <path d="M57 72 L63 72 L60 76 Z" stroke="#16a34a" stroke-width="1.5" stroke-linejoin="miter" fill="none"/>
  <line x1="60" y1="76" x2="54" y2="82" stroke="#16a34a" stroke-width="1.5" stroke-linecap="round"/>
  <line x1="60" y1="76" x2="66" y2="82" stroke="#16a34a" stroke-width="1.5" stroke-linecap="round"/>
  <line x1="28" y1="66" x2="44" y2="70" stroke="#16a34a" stroke-width="1.2" stroke-linecap="round"/>
  <line x1="26" y1="74" x2="44" y2="74" stroke="#16a34a" stroke-width="1.2" stroke-linecap="round"/>
  <line x1="92" y1="66" x2="76" y2="70" stroke="#16a34a" stroke-width="1.2" stroke-linecap="round"/>
  <line x1="94" y1="74" x2="76" y2="74" stroke="#16a34a" stroke-width="1.2" stroke-linecap="round"/>
</svg>
